<svg width="259" height="132" viewBox="0 0 259 132" fill="none" xmlns="http://www.w3.org/2000/svg">
<g filter="url(#filter0_d_213_931)">
<rect x="158" y="6" width="70" height="70" rx="35" fill="white"/>
<g filter="url(#filter1_d_213_931)">
<circle cx="193" cy="41.1816" r="31.1818" fill="url(#paint0_linear_213_931)"/>
</g>
<path fill-rule="evenodd" clip-rule="evenodd" d="M206.834 41.0003C206.834 48.3641 200.864 54.3337 193.5 54.3337C191.367 54.3337 189.351 53.8328 187.564 52.9424C187.089 52.7057 186.546 52.627 186.033 52.7642L183.065 53.5583C181.776 53.9031 180.598 52.7243 180.942 51.4359L181.736 48.4678C181.874 47.9551 181.795 47.4121 181.558 46.937C180.668 45.1492 180.167 43.1332 180.167 41.0003C180.167 33.6365 186.137 27.667 193.5 27.667C200.864 27.667 206.834 33.6365 206.834 41.0003ZM193.5 34.667C194.053 34.667 194.5 35.1147 194.5 35.667V46.3337C194.5 46.8859 194.053 47.3337 193.5 47.3337C192.948 47.3337 192.5 46.8859 192.5 46.3337V35.667C192.5 35.1147 192.948 34.667 193.5 34.667ZM189.167 38.3337C189.167 37.7814 188.719 37.3337 188.167 37.3337C187.615 37.3337 187.167 37.7814 187.167 38.3337V43.667C187.167 44.2193 187.615 44.667 188.167 44.667C188.719 44.667 189.167 44.2193 189.167 43.667V38.3337ZM198.834 37.3337C199.386 37.3337 199.834 37.7814 199.834 38.3337V43.667C199.834 44.2193 199.386 44.667 198.834 44.667C198.281 44.667 197.834 44.2193 197.834 43.667V38.3337C197.834 37.7814 198.281 37.3337 198.834 37.3337Z" fill="white"/>
<path d="M39.9414 46.5H38.7793V41.79H33.5293V46.5H32.3672V36.5059H33.5293V40.7646H38.7793V36.5059H39.9414V46.5ZM41.3359 39.0078H42.5527L44.207 43.3555C44.3027 43.6107 44.3916 43.8568 44.4736 44.0938C44.5557 44.3262 44.6286 44.5495 44.6924 44.7637C44.7562 44.9779 44.8063 45.1852 44.8428 45.3857H44.8906C44.9544 45.1579 45.0456 44.8594 45.1641 44.4902C45.2826 44.1165 45.4102 43.736 45.5469 43.3486L47.1123 39.0078H48.3359L45.0752 47.6006C44.902 48.0609 44.6992 48.4619 44.4668 48.8037C44.2389 49.1455 43.9609 49.4076 43.6328 49.5898C43.3047 49.7767 42.9082 49.8701 42.4434 49.8701C42.2292 49.8701 42.04 49.8564 41.876 49.8291C41.7119 49.8063 41.5706 49.779 41.4521 49.7471V48.8379C41.5524 48.8607 41.6732 48.8812 41.8145 48.8994C41.9603 48.9176 42.1107 48.9268 42.2656 48.9268C42.5482 48.9268 42.792 48.8721 42.9971 48.7627C43.2067 48.6579 43.3867 48.5029 43.5371 48.2979C43.6875 48.0928 43.8174 47.849 43.9268 47.5664L44.3369 46.5137L41.3359 39.0078ZM58.3096 39.0078L55.1924 42.6514L58.5762 46.5H57.2773L53.9961 42.6992V46.5H52.9365V42.6992L49.6621 46.5H48.3633L51.7471 42.6514L48.623 39.0078H49.874L52.9365 42.6445V39.0078H53.9961V42.6445L57.0723 39.0078H58.3096ZM60.9688 39.0078V42.1523H65.1455V39.0078H66.2803V46.5H65.1455V43.1162H60.9688V46.5H59.8271V39.0078H60.9688ZM71.4893 38.8848C72.3825 38.8848 73.0456 39.0853 73.4785 39.4863C73.9115 39.8874 74.1279 40.5277 74.1279 41.4072V46.5H73.3008L73.082 45.3926H73.0273C72.8177 45.666 72.599 45.8962 72.3711 46.083C72.1432 46.2653 71.8789 46.4043 71.5781 46.5C71.2819 46.5911 70.9173 46.6367 70.4844 46.6367C70.0286 46.6367 69.623 46.557 69.2676 46.3975C68.9167 46.238 68.6387 45.9964 68.4336 45.6729C68.2331 45.3493 68.1328 44.9391 68.1328 44.4424C68.1328 43.695 68.429 43.1208 69.0215 42.7197C69.6139 42.3187 70.5163 42.0999 71.7285 42.0635L73.0205 42.0088V41.5508C73.0205 40.9036 72.8815 40.4502 72.6035 40.1904C72.3255 39.9307 71.9336 39.8008 71.4277 39.8008C71.0358 39.8008 70.6621 39.8577 70.3066 39.9717C69.9512 40.0856 69.6139 40.2201 69.2949 40.375L68.9463 39.5137C69.2835 39.3405 69.6709 39.1924 70.1084 39.0693C70.5459 38.9463 71.0062 38.8848 71.4893 38.8848ZM73.0068 42.8086L71.8652 42.8564C70.931 42.8929 70.2725 43.0456 69.8896 43.3145C69.5068 43.5833 69.3154 43.9639 69.3154 44.4561C69.3154 44.8844 69.4453 45.2012 69.7051 45.4062C69.9648 45.6113 70.3089 45.7139 70.7373 45.7139C71.4027 45.7139 71.9473 45.5293 72.3711 45.1602C72.7949 44.791 73.0068 44.2373 73.0068 43.499V42.8086ZM86.3779 39.0078V46.5H85.2363V39.9854H81.2441V46.5H80.1025V39.0078H86.3779ZM95.2441 42.7402C95.2441 43.3555 95.1644 43.9046 95.0049 44.3877C94.8454 44.8708 94.6152 45.2786 94.3145 45.6113C94.0137 45.944 93.6491 46.1992 93.2207 46.377C92.7969 46.5501 92.3161 46.6367 91.7783 46.6367C91.277 46.6367 90.8167 46.5501 90.3975 46.377C89.9827 46.1992 89.6227 45.944 89.3174 45.6113C89.0166 45.2786 88.7819 44.8708 88.6133 44.3877C88.4492 43.9046 88.3672 43.3555 88.3672 42.7402C88.3672 41.9199 88.5062 41.2227 88.7842 40.6484C89.0622 40.0697 89.4587 39.6299 89.9736 39.3291C90.4932 39.0238 91.1107 38.8711 91.8262 38.8711C92.5098 38.8711 93.1068 39.0238 93.6172 39.3291C94.1322 39.6344 94.5309 40.0765 94.8135 40.6553C95.1006 41.2295 95.2441 41.9245 95.2441 42.7402ZM89.543 42.7402C89.543 43.3418 89.6227 43.8636 89.7822 44.3057C89.9417 44.7477 90.1878 45.0895 90.5205 45.3311C90.8532 45.5726 91.2816 45.6934 91.8057 45.6934C92.3252 45.6934 92.7513 45.5726 93.084 45.3311C93.4212 45.0895 93.6696 44.7477 93.8291 44.3057C93.9886 43.8636 94.0684 43.3418 94.0684 42.7402C94.0684 42.1432 93.9886 41.6283 93.8291 41.1953C93.6696 40.7578 93.4235 40.4206 93.0908 40.1836C92.7581 39.9466 92.3275 39.8281 91.7988 39.8281C91.0195 39.8281 90.4476 40.0856 90.083 40.6006C89.723 41.1156 89.543 41.8288 89.543 42.7402ZM105.115 39.0078V46.5H104.09V41.6191C104.09 41.4186 104.094 41.2158 104.104 41.0107C104.117 40.8011 104.133 40.5915 104.151 40.3818H104.11L101.622 46.5H100.658L98.2314 40.3818H98.1904C98.2041 40.5915 98.2132 40.8011 98.2178 41.0107C98.2269 41.2158 98.2314 41.4323 98.2314 41.6602V46.5H97.1992V39.0078H98.7236L101.144 45.1328L103.598 39.0078H105.115ZM113.934 42.7402C113.934 43.3555 113.854 43.9046 113.694 44.3877C113.535 44.8708 113.305 45.2786 113.004 45.6113C112.703 45.944 112.339 46.1992 111.91 46.377C111.486 46.5501 111.006 46.6367 110.468 46.6367C109.966 46.6367 109.506 46.5501 109.087 46.377C108.672 46.1992 108.312 45.944 108.007 45.6113C107.706 45.2786 107.471 44.8708 107.303 44.3877C107.139 43.9046 107.057 43.3555 107.057 42.7402C107.057 41.9199 107.196 41.2227 107.474 40.6484C107.752 40.0697 108.148 39.6299 108.663 39.3291C109.183 39.0238 109.8 38.8711 110.516 38.8711C111.199 38.8711 111.796 39.0238 112.307 39.3291C112.822 39.6344 113.22 40.0765 113.503 40.6553C113.79 41.2295 113.934 41.9245 113.934 42.7402ZM108.232 42.7402C108.232 43.3418 108.312 43.8636 108.472 44.3057C108.631 44.7477 108.877 45.0895 109.21 45.3311C109.543 45.5726 109.971 45.6934 110.495 45.6934C111.015 45.6934 111.441 45.5726 111.773 45.3311C112.111 45.0895 112.359 44.7477 112.519 44.3057C112.678 43.8636 112.758 43.3418 112.758 42.7402C112.758 42.1432 112.678 41.6283 112.519 41.1953C112.359 40.7578 112.113 40.4206 111.78 40.1836C111.448 39.9466 111.017 39.8281 110.488 39.8281C109.709 39.8281 109.137 40.0856 108.772 40.6006C108.412 41.1156 108.232 41.8288 108.232 42.7402ZM125.938 39.0078V45.5498H127.011V49.0771H125.869V46.5H115.896V39.0078H117.03V45.5361H120.346V39.0078H121.487V45.5361H124.81V39.0078H125.938ZM129.602 42.0977H131.898C132.536 42.0977 133.067 42.1774 133.491 42.3369C133.915 42.4964 134.232 42.7334 134.441 43.0479C134.656 43.3623 134.763 43.752 134.763 44.2168C134.763 44.6816 134.658 45.085 134.448 45.4268C134.243 45.7686 133.924 46.0329 133.491 46.2197C133.063 46.4066 132.509 46.5 131.83 46.5H128.46V39.0078H129.602V42.0977ZM133.621 44.2715C133.621 43.8112 133.457 43.4922 133.129 43.3145C132.805 43.1322 132.352 43.041 131.769 43.041H129.602V45.5771H131.775C132.322 45.5771 132.767 45.4769 133.108 45.2764C133.45 45.0713 133.621 44.7363 133.621 44.2715ZM137.49 43.7246V43.3691C137.49 43.0046 137.524 42.6924 137.593 42.4326C137.661 42.1683 137.78 41.9222 137.948 41.6943C138.121 41.4665 138.361 41.2249 138.666 40.9697C139.021 40.6735 139.302 40.4229 139.507 40.2178C139.716 40.0081 139.867 39.7985 139.958 39.5889C140.049 39.3792 140.095 39.1263 140.095 38.8301C140.095 38.3561 139.942 37.9938 139.637 37.7432C139.331 37.488 138.901 37.3604 138.345 37.3604C137.894 37.3604 137.493 37.4173 137.142 37.5312C136.791 37.6452 136.453 37.7819 136.13 37.9414L135.733 37.0254C136.107 36.8294 136.513 36.6699 136.95 36.5469C137.388 36.4238 137.875 36.3623 138.413 36.3623C139.293 36.3623 139.974 36.5811 140.457 37.0186C140.94 37.4515 141.182 38.0485 141.182 38.8096C141.182 39.2334 141.113 39.5957 140.977 39.8965C140.84 40.1927 140.646 40.4661 140.396 40.7168C140.145 40.9629 139.849 41.2249 139.507 41.5029C139.206 41.7581 138.976 41.9837 138.816 42.1797C138.657 42.3711 138.548 42.5693 138.488 42.7744C138.429 42.9749 138.399 43.2165 138.399 43.499V43.7246H137.49ZM137.189 45.7891C137.189 45.4701 137.265 45.2445 137.415 45.1123C137.565 44.9756 137.759 44.9072 137.996 44.9072C138.219 44.9072 138.409 44.9756 138.563 45.1123C138.723 45.2445 138.803 45.4701 138.803 45.7891C138.803 46.1035 138.723 46.3337 138.563 46.4795C138.409 46.6208 138.219 46.6914 137.996 46.6914C137.759 46.6914 137.565 46.6208 137.415 46.4795C137.265 46.3337 137.189 46.1035 137.189 45.7891Z" fill="#744CED"/>
</g>
<defs>
<filter id="filter0_d_213_931" x="0.454548" y="0.909094" width="258.091" height="131.091" filterUnits="userSpaceOnUse" color-interpolation-filters="sRGB">
<feFlood flood-opacity="0" result="BackgroundImageFix"/>
<feColorMatrix in="SourceAlpha" type="matrix" values="0 0 0 0 0 0 0 0 0 0 0 0 0 0 0 0 0 0 127 0" result="hardAlpha"/>
<feOffset dy="25.4545"/>
<feGaussianBlur stdDeviation="15.2727"/>
<feColorMatrix type="matrix" values="0 0 0 0 0.541176 0 0 0 0 0.313726 0 0 0 0 0.901961 0 0 0 0.06 0"/>
<feBlend mode="normal" in2="BackgroundImageFix" result="effect1_dropShadow_213_931"/>
<feBlend mode="normal" in="SourceGraphic" in2="effect1_dropShadow_213_931" result="shape"/>
</filter>
<filter id="filter1_d_213_931" x="147.818" y="9.99976" width="90.3636" height="90.3635" filterUnits="userSpaceOnUse" color-interpolation-filters="sRGB">
<feFlood flood-opacity="0" result="BackgroundImageFix"/>
<feColorMatrix in="SourceAlpha" type="matrix" values="0 0 0 0 0 0 0 0 0 0 0 0 0 0 0 0 0 0 127 0" result="hardAlpha"/>
<feMorphology radius="16.5455" operator="erode" in="SourceAlpha" result="effect1_dropShadow_213_931"/>
<feOffset dy="14"/>
<feGaussianBlur stdDeviation="15.2727"/>
<feColorMatrix type="matrix" values="0 0 0 0 0.541176 0 0 0 0 0.313726 0 0 0 0 0.901961 0 0 0 1 0"/>
<feBlend mode="normal" in2="BackgroundImageFix" result="effect1_dropShadow_213_931"/>
<feBlend mode="normal" in="SourceGraphic" in2="effect1_dropShadow_213_931" result="shape"/>
</filter>
<linearGradient id="paint0_linear_213_931" x1="193" y1="9.99976" x2="193" y2="72.3634" gradientUnits="userSpaceOnUse">
<stop offset="0.1875" stop-color="#744CED"/>
<stop offset="0.880208" stop-color="#B650E6"/>
</linearGradient>
</defs>
</svg>
