<svg width="18" height="10" viewBox="0 0 18 10" fill="none" xmlns="http://www.w3.org/2000/svg">
<path fill-rule="evenodd" clip-rule="evenodd" d="M17.2364 0.448569C17.541 0.579102 17.682 0.93183 17.5515 1.23641L17 1.00006C17.5515 1.23641 17.5516 1.23627 17.5515 1.23641L17.5509 1.23775L17.5501 1.23974L17.5475 1.24563L17.539 1.26489C17.5318 1.281 17.5216 1.30357 17.5083 1.33211C17.4816 1.3892 17.4427 1.47025 17.3911 1.57138C17.288 1.7735 17.1341 2.0566 16.9268 2.38923C16.5864 2.93566 16.098 3.62218 15.4496 4.3042L16.2243 5.07886C16.4586 5.31318 16.4586 5.69308 16.2243 5.92739C15.99 6.16171 15.6101 6.16171 15.3758 5.92739L14.5753 5.12693C14.0475 5.56908 13.4423 5.98408 12.7561 6.32504L13.5029 7.47282C13.6837 7.75057 13.605 8.12224 13.3273 8.30297C13.0495 8.48369 12.6778 8.40504 12.4971 8.12729L11.6258 6.78817C11.0023 6.99178 10.3273 7.13015 9.60003 7.17975V8.60006C9.60003 8.93143 9.3314 9.20006 9.00002 9.20006C8.66865 9.20006 8.40002 8.93143 8.40002 8.60006V7.17975C7.6952 7.13168 7.03936 7.00022 6.43195 6.80678L5.57269 8.12734C5.39196 8.40509 5.02029 8.48375 4.74254 8.30302C4.46479 8.1223 4.38614 7.75063 4.56686 7.47288L5.2968 6.35107C4.60529 6.01338 3.99514 5.60019 3.46282 5.15866L2.69404 5.92744C2.45972 6.16176 2.07983 6.16176 1.84551 5.92744C1.6112 5.69313 1.6112 5.31323 1.84551 5.07892L2.58452 4.33991C1.92488 3.65215 1.42829 2.9573 1.0823 2.40379C0.87196 2.06728 0.715762 1.78057 0.611191 1.57581C0.55887 1.47336 0.519368 1.39121 0.492382 1.33337C0.478885 1.30444 0.46851 1.28156 0.461217 1.26524L0.452582 1.24573L0.449988 1.23977L0.44912 1.23776L0.448793 1.237C0.448732 1.23686 0.448537 1.23641 1.00002 1.00006L0.448793 1.237C0.31826 0.932426 0.459095 0.579102 0.763673 0.448569C1.068 0.318143 1.4204 0.458895 1.55119 0.762953C1.55114 0.762848 1.55123 0.763058 1.55119 0.762953L1.55195 0.764706L1.55681 0.775676C1.56153 0.786233 1.5692 0.803182 1.57987 0.82604C1.6012 0.871767 1.63446 0.941056 1.6799 1.03003C1.77085 1.20813 1.91018 1.46427 2.09986 1.76774C2.48035 2.37644 3.05734 3.16573 3.84457 3.89733C4.53729 4.5411 5.38616 5.1341 6.4014 5.5247C7.165 5.81848 8.02838 6.00006 9.00002 6.00006C9.99339 6.00006 10.8737 5.81027 11.65 5.50471C12.6591 5.10752 13.5022 4.51065 14.1894 3.86565C14.965 3.13763 15.5335 2.35618 15.9084 1.75462C16.0953 1.4547 16.2325 1.20187 16.3221 1.02619C16.3669 0.938419 16.3996 0.870111 16.4206 0.825053C16.4311 0.80253 16.4387 0.785837 16.4433 0.775449L16.4481 0.764662L16.4485 0.763705C16.4485 0.763783 16.4486 0.763626 16.4485 0.763705M17.2364 0.448569C16.9319 0.318069 16.5792 0.459289 16.4485 0.763705L17.2364 0.448569ZM1.55119 0.762953C1.55114 0.762848 1.55123 0.763058 1.55119 0.762953V0.762953Z" fill="#4A3C73"/>
</svg>
