<svg width="96" height="28" viewBox="0 0 96 28" fill="none" xmlns="http://www.w3.org/2000/svg">
<path d="M6.45217 0.316382H0V28H4.3811V17.5989H6.45217C10.8333 17.5989 12.984 15.1864 12.984 10.7571V7.15819C12.984 2.72881 10.8333 0.316382 6.45217 0.316382ZM6.45217 4.27119C7.84616 4.27119 8.60289 4.90395 8.60289 6.88135V11.0339C8.60289 13.0113 7.84616 13.6441 6.45217 13.6441H4.3811V4.27119H6.45217Z" fill="#744CED"/>
<path d="M24.4203 0.316382H18.008L13.5472 28H17.5698L18.3266 22.9774H23.7034L24.4601 28H28.8811L24.4203 0.316382ZM20.9951 5.22034L23.106 19.2203H18.8842L20.9951 5.22034Z" fill="#744CED"/>
<path d="M35.0236 28H39.4047V18.8249L44.9409 0.316382H40.7589L37.4133 12.9322L34.0677 0.316382H29.4875L35.0236 18.8249V28Z" fill="#744CED"/>
<path d="M55.3951 7.11864C55.3951 15.1073 46.7126 16.452 46.7126 24.5989V28H59.378V24.0452H51.0937C51.0539 23.8475 51.0539 23.6497 51.0539 23.452C51.0539 18.904 59.7762 15.661 59.7762 6.96045C59.7762 2.53107 57.5459 0 53.2444 0C48.943 0 46.7126 2.53107 46.7126 6.96045V9.64972H50.8547V6.68361C50.8547 4.70621 51.7309 3.9548 53.1249 3.9548C54.5189 3.9548 55.3951 4.62712 55.3951 7.11864Z" fill="#744CED"/>
<path d="M68.5577 0.316382H62.464V28H66.2875V8.42373L69.5534 28H73.6956L76.7225 8.14689V28H80.8647V0.316382H74.7709L71.7838 19.9718L68.5577 0.316382Z" fill="#744CED"/>
<path d="M88.4326 4.27119H96V0.316382H84.0515V28H96V24.0452H88.4326V15.9379H94.4467V11.983H88.4326V4.27119Z" fill="#744CED"/>
</svg>
